<?xml version="1.0" standalone="no"?><!DOCTYPE svg PUBLIC "-//W3C//DTD SVG 1.1//EN" "http://www.w3.org/Graphics/SVG/1.1/DTD/svg11.dtd"><svg t="1552642714511" class="icon" style="" viewBox="0 0 1024 1024" version="1.1" xmlns="http://www.w3.org/2000/svg" p-id="27434" xmlns:xlink="http://www.w3.org/1999/xlink" width="200" height="200"><defs><style type="text/css"></style></defs><path d="M793.6 227.2H768v51.2h-73.6V227.2H294.4v51.2H220.8V227.2h-25.6c-12.8 0-25.6 9.6-25.6 25.6V800c0 12.8 9.6 25.6 25.6 25.6h25.6V800h73.6v25.6h396.8V800H768v25.6h25.6c12.8 0 25.6-9.6 25.6-25.6V252.8c-3.2-16-12.8-25.6-25.6-25.6zM294.4 710.4H220.8v-73.6h73.6v73.6z m0-147.2H220.8v-73.6h73.6v73.6z m0-150.4H220.8v-73.6h73.6v73.6z m313.6 115.2l-160 92.8c-3.2 0-6.4 3.2-9.6 3.2-3.2 0-6.4 0-9.6-3.2-6.4-3.2-9.6-9.6-9.6-16V416c0-6.4 3.2-12.8 9.6-16 6.4-3.2 12.8-3.2 19.2 0l160 92.8c6.4 3.2 9.6 9.6 9.6 16 0 9.6-3.2 16-9.6 19.2z m160 182.4h-73.6v-73.6H768v73.6z m0-147.2h-73.6v-73.6H768v73.6z m0-150.4h-73.6v-73.6H768v73.6z" fill="" p-id="27435"></path></svg>
