<?xml version="1.0" standalone="no"?><!DOCTYPE svg PUBLIC "-//W3C//DTD SVG 1.1//EN" "http://www.w3.org/Graphics/SVG/1.1/DTD/svg11.dtd"><svg t="1552641093524" class="icon" style="" viewBox="0 0 1024 1024" version="1.1" xmlns="http://www.w3.org/2000/svg" p-id="24642" xmlns:xlink="http://www.w3.org/1999/xlink" width="200" height="200"><defs><style type="text/css"></style></defs><path d="M75.905475 241.532659v275.61174a37.921263 37.921263 0 0 1-75.842526 0V219.690011a75.842526 75.842526 0 0 1 37.921263-65.679627L295.621273 5.207348a37.921263 37.921263 0 1 1 37.921263 65.679627L94.866107 208.692845a37.921263 37.921263 0 0 0-18.960632 32.839814z m834.419472 0a37.921263 37.921263 0 0 0-18.960632-32.839814L652.687886 70.886975a37.921263 37.921263 0 1 1 37.921263-65.679627l257.637061 148.765115a75.842526 75.842526 0 0 1 37.921263 65.679627v297.492309a37.921263 37.921263 0 0 1-75.842526 0V241.532659z m-387.176096 695.551806l238.714351-137.80587a37.921263 37.921263 0 1 1 37.921263 65.679628l-257.674982 148.765115a75.842526 75.842526 0 0 1-75.842526 0L208.629896 864.958223a37.921263 37.921263 0 0 1 37.921263-65.679628l238.676429 137.80587a37.921263 37.921263 0 0 0 37.921263 0z m10.162899-699.26809l154.03617 88.925362a75.842526 75.842526 0 0 1 37.921263 65.679627v177.850724a75.842526 75.842526 0 0 1-37.921263 65.717549l-154.03617 88.925362a75.842526 75.842526 0 0 1-75.842526 0L303.433053 635.989637a75.842526 75.842526 0 0 1-37.921263-65.679628v-177.850723a75.842526 75.842526 0 0 1 37.921263-65.717549l154.036171-88.925362a75.842526 75.842526 0 0 1 75.842526 0zM341.354316 414.339855v134.089586a37.921263 37.921263 0 0 0 18.960632 32.839813l116.114907 67.044793a37.921263 37.921263 0 0 0 37.921263 0l116.114908-67.044793a37.921263 37.921263 0 0 0 18.960631-32.839813v-134.089586a37.921263 37.921263 0 0 0-18.960631-32.839814l-116.114908-67.044793a37.921263 37.921263 0 0 0-37.921263 0L360.314948 381.500041a37.921263 37.921263 0 0 0-18.960632 32.839814z" fill="" p-id="24643"></path></svg>
