<?xml version="1.0" standalone="no"?><!DOCTYPE svg PUBLIC "-//W3C//DTD SVG 1.1//EN" "http://www.w3.org/Graphics/SVG/1.1/DTD/svg11.dtd"><svg t="1552643819980" class="icon" style="" viewBox="0 0 1024 1024" version="1.1" xmlns="http://www.w3.org/2000/svg" p-id="29553" xmlns:xlink="http://www.w3.org/1999/xlink" width="200" height="200"><defs><style type="text/css"></style></defs><path d="M870.816 714.72c-11.488 0-21.536 6.016-27.312 15.024-24.784 34.88-61.696 64.576-110.928 89.04-49.872 24.784-111.712 37.184-185.504 37.184-69.024 0-131.936-11.904-188.688-35.696-56.784-23.808-100.16-60.656-130.16-110.512s-45.008-109.296-45.008-178.336c0-65.92 15.008-127.68 45.008-185.296s72.256-101.84 126.784-132.704c54.496-30.848 114.72-46.272 180.624-46.272 57.744 0 110.528 12.256 158.288 36.768s83.664 57.184 107.744 98.032c24.096 40.864 36.128 84.816 36.128 131.84 0 40.32-9.376 79.392-28.096 117.28-18.752 37.888-44.16 68.096-76.288 90.64-24.224 17.184-43.808 25.76-58.752 25.76-8.16 0-15.12-2.736-20.912-8.224-5.776-5.504-8.656-12.064-8.656-19.664 0-4.24 4.224-26.064 12.656-65.504l57.504-267.856-0.128-0.016c0.528-2.496 0.848-5.056 0.848-7.712 0-20.336-16.48-36.816-36.848-36.816-17.6 0-32.288 12.384-35.904 28.912l-0.256-0.064-14.368 65.504c-16.032-26.208-35.216-45.696-57.472-58.528-22.256-12.816-45.632-19.216-70.128-19.216-32.128 0-65.248 11.264-99.312 33.792-34.096 22.544-62.624 56.288-85.6 101.216-22.944 44.944-34.432 89.792-34.432 134.592 0 36.336 7.408 69.728 22.192 100.144 14.816 30.432 34.032 52.976 57.68 67.632s48.032 21.968 73.12 21.968c22.816 0 45.568-6.4 68.224-19.216 22.688-12.816 43.184-29.792 61.504-50.944 1.68 17.184 4.368 29.312 8.032 36.336 5.632 11.008 14.432 19.44 26.4 25.36s27.68 8.88 47.12 8.88c60.848 0 116.912-28.448 168.192-85.36 57.472-63.376 86.192-135.92 86.192-217.632 0-57.184-13.664-110.16-40.976-158.896-32.128-56.624-76-99.232-131.664-127.84-55.632-28.576-118.368-42.896-188.256-42.896-90.16 0-166.848 20.304-230.096 60.864s-112.064 99.024-146.416 175.376c-28.176 62.272-42.256 127.76-42.256 196.496 0 61.696 11.824 119.168 35.504 172.4 18.864 41.984 46.896 79.088 84.08 111.36 37.184 32.256 82.192 56.4 135.024 72.464 52.816 16.064 110.496 24.096 173.024 24.096 67.904 0 125.936-8.96 174.096-26.848 48.192-17.888 89.744-42.192 124.688-72.896 19.952-17.552 36.56-34.928 49.808-52.112 0.144-0.192 0.128-0.368 0.24-0.56 3.84-5.344 6.16-11.84 6.16-18.912 0.048-17.872-14.496-32.432-32.448-32.432zM589.328 548.128c-10.16 28.592-23.184 52.192-39.088 70.784s-32.624 32.624-50.064 42.064c-17.504 9.44-34.096 14.16-49.872 14.16-23.664 0-44.656-10.72-62.976-32.128s-27.472-51.408-27.472-90c0-24.24 4.496-50.864 13.536-79.872 8.992-29.008 20.976-53.664 35.904-73.952s30.336-35.008 46.288-44.16c15.904-9.152 32.88-13.728 50.912-13.728 27.344 0 50.496 10.56 69.536 31.68 19.008 21.12 28.528 50.864 28.528 89.152-0.016 28.752-5.104 57.408-15.232 86z" fill="" p-id="29554"></path></svg>
