<?xml version="1.0" standalone="no"?><!DOCTYPE svg PUBLIC "-//W3C//DTD SVG 1.1//EN" "http://www.w3.org/Graphics/SVG/1.1/DTD/svg11.dtd"><svg t="1552647246876" class="icon" style="" viewBox="0 0 1024 1024" version="1.1" xmlns="http://www.w3.org/2000/svg" p-id="30764" xmlns:xlink="http://www.w3.org/1999/xlink" width="200" height="200"><defs><style type="text/css"></style></defs><path d="M595.2 384c12.8-12.8 12.8-35.2 0-48-12.8-12.8-35.2-12.8-48 0l-220.8 214.4a129.6 129.6 0 0 0 0 188.8c54.4 51.2 144 51.2 198.4 0l345.6-332.8c80-80 80-204.8 0-284.8s-214.4-80-294.4 0L176 502.4c-108.8 105.6-108.8 275.2 0 380.8 108.8 105.6 284.8 105.6 393.6 0l220.8-214.4c12.8-12.8 12.8-35.2 0-48-12.8-12.8-35.2-12.8-48 0l-220.8 214.4c-80 80-214.4 80-294.4 0-80-80-80-204.8 0-284.8L620.8 169.6c54.4-51.2 144-51.2 198.4 0s54.4 137.6 0 188.8L473.6 691.2c-25.6 25.6-70.4 25.6-99.2 0-25.6-25.6-25.6-67.2 0-96l220.8-211.2z" fill="" p-id="30765"></path></svg>
