<?xml version="1.0" standalone="no"?><!DOCTYPE svg PUBLIC "-//W3C//DTD SVG 1.1//EN" "http://www.w3.org/Graphics/SVG/1.1/DTD/svg11.dtd"><svg t="1552641019329" class="icon" style="" viewBox="0 0 1024 1024" version="1.1" xmlns="http://www.w3.org/2000/svg" p-id="23962" xmlns:xlink="http://www.w3.org/1999/xlink" width="200" height="200"><defs><style type="text/css"></style></defs><path d="M173.504 384H640v64H173.088l126.656 126.624a32 32 0 1 1-45.28 45.248l-181.088-181.024a31.904 31.904 0 0 1 0-45.248l181.12-181.024a32 32 0 0 1 45.248 45.248L173.504 384zM960 704c0-176.736-143.264-320-320-320v64a256 256 0 0 1 256 256h64z m0 0h-64v96a32 32 0 0 0 64 0v-96z" fill="" p-id="23963"></path></svg>
