<?xml version="1.0" standalone="no"?><!DOCTYPE svg PUBLIC "-//W3C//DTD SVG 1.1//EN" "http://www.w3.org/Graphics/SVG/1.1/DTD/svg11.dtd"><svg t="1552643257723" class="icon" style="" viewBox="0 0 1024 1024" version="1.1" xmlns="http://www.w3.org/2000/svg" p-id="28445" xmlns:xlink="http://www.w3.org/1999/xlink" width="200" height="200"><defs><style type="text/css"></style></defs><path d="M591.744 137.92C720.96 170.88 816 282.016 816 413.984V704h31.968c26.528 0 48.032 21.312 48.032 48 0 26.496-21.344 48-48.032 48H176C149.504 800 128 778.688 128 752c0-26.496 21.344-48 48.032-48H208v-288-2.048c0-131.968 95.04-243.04 224.256-276A79.904 79.904 0 0 1 512 64a80.256 80.256 0 0 1 79.744 73.92zM640 832a128 128 0 1 1-256 0h256z" fill="" p-id="28446"></path></svg>
