<?xml version="1.0" standalone="no"?><!DOCTYPE svg PUBLIC "-//W3C//DTD SVG 1.1//EN" "https://www.w3.org/Graphics/SVG/1.1/DTD/svg11.dtd"><svg t="1552643815293" class="icon" style="" viewBox="0 0 1024 1024" version="1.1" xmlns="https://www.w3.org/2000/svg" p-id="29444" xmlns:xlink="https://www.w3.org/1999/xlink" width="200" height="200"><defs><style type="text/css"></style></defs><path d="M218.88 652.608c-22.336 0-39.424-20.48-39.424-44.8 0-24.32 17.088-44.8 39.424-44.8h586.24c35.456 0 51.84 47.68 28.672 75.584l-159.872 192a36.416 36.416 0 0 1-57.344 0 49.472 49.472 0 0 1 0-61.632l97.216-116.352H218.88z m586.24-280.96c22.336 0 39.424 20.48 39.424 44.8 0 24.32-17.088 44.8-39.424 44.8H218.88c-35.456 0-51.84-47.68-28.672-75.648l159.872-192a36.416 36.416 0 0 1 57.344 0 49.472 49.472 0 0 1 0 61.696L310.208 371.648h494.912z" fill="" p-id="29445"></path></svg>
