<?xml version="1.0" standalone="no"?><!DOCTYPE svg PUBLIC "-//W3C//DTD SVG 1.1//EN" "https://www.w3.org/Graphics/SVG/1.1/DTD/svg11.dtd"><svg t="1552641337890" class="icon" style="" viewBox="0 0 1024 1024" version="1.1" xmlns="https://www.w3.org/2000/svg" p-id="25096" xmlns:xlink="https://www.w3.org/1999/xlink" width="200" height="200"><defs><style type="text/css"></style></defs><path d="M512 989.866667C248.081067 989.866667 34.133333 775.918933 34.133333 512S248.081067 34.133333 512 34.133333s477.866667 213.947733 477.866667 477.866667-213.947733 477.866667-477.866667 477.866667z m0-68.266667c226.2016 0 409.6-183.3984 409.6-409.6S738.2016 102.4 512 102.4 102.4 285.7984 102.4 512s183.3984 409.6 409.6 409.6z" fill="" p-id="25097"></path><path d="M439.6032 439.6032l-72.430933 217.224533 217.224533-72.430933 48.298667 48.298667L270.6432 753.322667l120.661333-362.052267 48.298667 48.298667z m0 0l-48.298667-48.298667L753.3568 270.677333l-120.661333 362.052267-48.298667-48.298667 72.430933-217.224533-217.224533 72.430933z" fill="" p-id="25098"></path><path d="M512 512m-34.133333 0a34.133333 34.133333 0 1 0 68.266666 0 34.133333 34.133333 0 1 0-68.266666 0Z" fill="" p-id="25099"></path></svg>
