<?xml version="1.0" standalone="no"?><!DOCTYPE svg PUBLIC "-//W3C//DTD SVG 1.1//EN" "http://www.w3.org/Graphics/SVG/1.1/DTD/svg11.dtd"><svg t="1552641066483" class="icon" style="" viewBox="0 0 1024 1024" version="1.1" xmlns="http://www.w3.org/2000/svg" p-id="24533" xmlns:xlink="http://www.w3.org/1999/xlink" width="200" height="200"><defs><style type="text/css"></style></defs><path d="M544 494.4l152.48 88.032a31.872 31.872 0 0 1 11.616 43.68c-8.832 15.296-28.544 20.48-43.616 11.776l-166.464-96.096a31.968 31.968 0 0 1-8.288-6.88 31.776 31.776 0 0 1-9.728-22.752v-256.32c0-17.6 14.208-31.84 32-31.84 17.664 0 32 14.592 32 31.84v238.592zM512 96c229.504 0 416 186.496 416 416s-186.496 416-416 416S96 741.504 96 512 282.496 96 512 96z m0 768c194.304 0 352-157.696 352-352S706.304 160 512 160 160 317.696 160 512s157.696 352 352 352z" fill="" p-id="24534"></path></svg>
