<?xml version="1.0" standalone="no"?><!DOCTYPE svg PUBLIC "-//W3C//DTD SVG 1.1//EN" "http://www.w3.org/Graphics/SVG/1.1/DTD/svg11.dtd"><svg t="1552643825222" class="icon" style="" viewBox="0 0 1024 1024" version="1.1" xmlns="http://www.w3.org/2000/svg" p-id="29662" xmlns:xlink="http://www.w3.org/1999/xlink" width="200" height="200"><defs><style type="text/css"></style></defs><path d="M701.76 128c-78.944 0-141.536 36.8-189.472 97.248C463.776 164.768 401.76 128 322.848 128 180.16 128 64 245.216 64 389.76c0 86.24 41.728 146.688 75.008 195.04 96.416 141.408 329.28 293.312 339.456 300.672 10.144 7.36 21.44 10.528 33.28 10.528s23.104-3.68 33.248-10.528c10.144-7.36 243.04-159.776 340-300.672 33.28-48.352 75.008-108.8 75.008-195.008C960 245.76 843.84 128 701.76 128z" fill="" p-id="29663"></path></svg>
