<?xml version="1.0" standalone="no"?><!DOCTYPE svg PUBLIC "-//W3C//DTD SVG 1.1//EN" "http://www.w3.org/Graphics/SVG/1.1/DTD/svg11.dtd"><svg t="1552643454433" class="icon" style="" viewBox="0 0 1024 1024" version="1.1" xmlns="http://www.w3.org/2000/svg" p-id="28881" xmlns:xlink="http://www.w3.org/1999/xlink" width="200" height="200"><defs><style type="text/css"></style></defs><path d="M863.253946 399.354454c-1.546216 6.534833-5.361101 16.112979-10.712993 27.665083l0.115634 0-0.611937 1.069355C820.816414 495.006977 739.28347 626.249067 739.28347 626.249067s-0.104377-0.309038-0.425695-0.820692l-23.826662 41.542138 114.825189 0L610.546434 959.057919l49.780777-198.699458-90.350774 0 31.395034-131.391493c-25.399483 6.133697-55.42124 14.570857-90.977038 26.01756 0 0-48.099485 28.212552-138.557706-54.271044 0 0-61.007469-53.832046-25.635867-67.282383 15.043624-5.719258 73.03848-12.975523 118.66668-19.153222 61.663408-8.348132 99.597369-12.767791 99.597369-12.767791s-190.114942 2.846838-235.216139-4.256954c-45.104267-7.103792-102.31834-82.47541-114.505917-148.737556 0 0-18.850323-36.375465 40.534182-19.153222 59.384505 17.22122 305.189817 67.039859 305.189817 67.039859s-319.683926-98.159624-340.956416-122.107035c-21.269419-23.947412-62.599733-130.720204-57.223283-196.330504 0 0 2.331092-16.356526 19.075451-11.971659 0 0 236.33359 108.163465 397.937175 167.375032S881.406374 322.692447 863.253946 399.354454L863.253946 399.354454z" fill="" p-id="28882"></path></svg>
