<?xml version="1.0" standalone="no"?><!DOCTYPE svg PUBLIC "-//W3C//DTD SVG 1.1//EN" "https://www.w3.org/Graphics/SVG/1.1/DTD/svg11.dtd"><svg t="1552642860374" class="icon" style="" viewBox="0 0 1024 1024" version="1.1" xmlns="https://www.w3.org/2000/svg" p-id="27664" xmlns:xlink="https://www.w3.org/1999/xlink" width="200" height="200"><defs><style type="text/css"></style></defs><path d="M473.536 593.408v-7.04c0-22.656 3.84-42.24 12.704-58.112 8.288-17.12 32.448-42.208 71.84-75.84l10.816-11.616c11.456-14.08 17.792-28.768 17.792-44.64 0-21.44-6.336-37.92-18.432-50.176-12.704-12.224-31.136-18.336-54.016-18.336-28.64 0-49.6 8.576-62.304 26.304-11.36 14.528-17.056 35.072-17.184 61.6a31.616 31.616 0 0 1 0.192 3.584c0 17.856-14.976 32.32-33.472 32.32-18.496 0-33.472-14.464-33.472-32.32a31.68 31.68 0 0 1 0.128-2.816H368c0-44.64 13.344-79.488 40.064-105.184 26.688-26.304 63.552-39.136 110.624-39.136 40.672 0 73.728 10.4 99.168 32.416 25.44 21.408 38.144 50.752 38.144 87.456 0 29.952-8.256 55.04-24.16 74.592-5.728 6.72-23.52 22.656-53.408 47.712a102.4 102.4 0 0 0-26.688 31.808 79.648 79.648 0 0 0-10.176 40.352v10.4h-0.064c-0.8 17.504-15.712 31.456-34.016 31.456-18.784 0-34.016-14.72-34.016-32.896 0-0.64 0-1.28 0.064-1.92zM512 960C264.576 960 64 759.424 64 512S264.576 64 512 64s448 200.576 448 448-200.576 448-448 448z m0-64c212.064 0 384-171.936 384-384S724.064 128 512 128 128 299.936 128 512s171.936 384 384 384z m-4.768-231.456c13.344 0 24.8 3.68 33.696 12.224 8.896 7.968 13.344 18.368 13.344 31.2s-5.088 23.232-13.984 31.808a48.8 48.8 0 0 1-33.056 12.224c-12.704 0-24.16-4.288-33.056-12.832a41.664 41.664 0 0 1-13.344-31.2c0-12.832 4.448-23.232 13.344-31.2 8.896-8.544 20.352-12.224 33.056-12.224z" fill="" p-id="27665"></path></svg>
