<?xml version="1.0" standalone="no"?><!DOCTYPE svg PUBLIC "-//W3C//DTD SVG 1.1//EN" "https://www.w3.org/Graphics/SVG/1.1/DTD/svg11.dtd"><svg t="1552644879725" class="icon" style="" viewBox="0 0 1024 1024" version="1.1" xmlns="https://www.w3.org/2000/svg" p-id="30431" xmlns:xlink="https://www.w3.org/1999/xlink" width="200" height="200"><defs><style type="text/css"></style></defs><path d="M512 64C265.6 64 64 265.6 64 512s201.6 448 448 448 448-201.6 448-448S758.4 64 512 64z m28.8 675.2c-9.6 6.4-19.2 12.8-32 12.8s-25.6-3.2-32-12.8c-9.6-9.6-12.8-19.2-12.8-32s3.2-22.4 12.8-32c9.6-9.6 19.2-12.8 32-12.8s25.6 3.2 35.2 12.8c9.6 6.4 12.8 19.2 12.8 32-3.2 12.8-6.4 25.6-16 32z m89.6-272c-6.4 6.4-22.4 22.4-54.4 48-12.8 9.6-22.4 19.2-25.6 32-6.4 12.8-9.6 25.6-9.6 41.6v9.6c0 16-16 32-35.2 32-19.2 0-35.2-16-35.2-32V588.8c0-22.4 3.2-41.6 12.8-57.6 9.6-16 32-41.6 70.4-76.8l9.6-12.8c12.8-12.8 19.2-28.8 19.2-44.8 0-22.4-6.4-38.4-19.2-51.2-12.8-12.8-32-19.2-54.4-19.2-28.8 0-48 9.6-60.8 25.6-12.8 16-16 35.2-16 60.8v3.2c0 19.2-16 32-32 32s-32-16-32-32v-3.2c0-44.8 12.8-80 41.6-105.6 25.6-25.6 64-38.4 112-38.4 41.6 0 73.6 9.6 99.2 32 25.6 22.4 38.4 51.2 38.4 86.4-3.2 35.2-12.8 60.8-28.8 80z" fill="" p-id="30432"></path></svg>
