<?xml version="1.0" standalone="no"?><!DOCTYPE svg PUBLIC "-//W3C//DTD SVG 1.1//EN" "https://www.w3.org/Graphics/SVG/1.1/DTD/svg11.dtd"><svg t="1552641025428" class="icon" style="" viewBox="0 0 1024 1024" version="1.1" xmlns="https://www.w3.org/2000/svg" p-id="24077" xmlns:xlink="https://www.w3.org/1999/xlink" width="200" height="200"><defs><style type="text/css"></style></defs><path d="M707.872 289.6l-256.32 256.32 56.576 33.952 33.92 56.576 256.32-256.32-90.496-90.528z m45.28-45.248l90.496 90.496 22.624-22.624a32 32 0 0 0 0-45.248L821.024 221.76a32 32 0 0 0-45.248 0l-22.624 22.624z m-346.88 346.848l-15.168 15.2v90.496h90.496l15.2-15.2-33.92-56.544-56.576-33.952zM843.68 153.856l90.496 90.496a64 64 0 0 1 0 90.496L508.16 760.896h-181.024v-181.024L753.152 153.856a64 64 0 0 1 90.496 0zM576 96a32 32 0 0 1-32 32H160c-17.696 0-32 14.208-32 31.744v704.512c0 17.184 14.336 31.744 32 31.744h704c17.696 0 32-14.208 32-31.744V608a32 32 0 0 1 64 0v287.84C960 931.264 931.2 960 896.288 960H127.68C92.512 960 64 931.296 64 895.84V128.16C64 92.736 92.8 64 127.712 64H544a32 32 0 0 1 32 32z" fill="" p-id="24078"></path></svg>
