<?xml version="1.0" standalone="no"?><!DOCTYPE svg PUBLIC "-//W3C//DTD SVG 1.1//EN" "http://www.w3.org/Graphics/SVG/1.1/DTD/svg11.dtd"><svg t="1552643835490" class="icon" style="" viewBox="0 0 1024 1024" version="1.1" xmlns="http://www.w3.org/2000/svg" p-id="29886" xmlns:xlink="http://www.w3.org/1999/xlink" width="200" height="200"><defs><style type="text/css"></style></defs><path d="M591.872 553.696l197.824 197.824a32 32 0 0 0 45.248-45.248L637.12 508.48l197.824-197.824a32 32 0 1 0-45.248-45.248l-226.432 226.4a63.84 63.84 0 0 1-90.24 0L246.624 265.376a32 32 0 0 0-45.248 45.248l197.824 197.824-197.824 197.824a32 32 0 0 0 45.248 45.248l197.824-197.824 5.952 5.952a95.872 95.872 0 0 0 135.52 0l5.952-5.952zM64 223.712C64 188.512 92.8 160 127.712 160H896.32C931.488 160 960 188.48 960 223.712V800.32c0 35.2-28.8 63.712-63.712 63.712H127.68A63.68 63.68 0 0 1 64 800.288V223.68z" fill="" p-id="29887"></path></svg>
