<?xml version="1.0" standalone="no"?><!DOCTYPE svg PUBLIC "-//W3C//DTD SVG 1.1//EN" "http://www.w3.org/Graphics/SVG/1.1/DTD/svg11.dtd"><svg width="200" height="200" viewBox="0 0 200 200" version="1.1" xmlns="http://www.w3.org/2000/svg" xmlns:xlink="http://www.w3.org/1999/xlink"><g class="transform-group"><g transform="scale(0.1953125, 0.1953125)"><path d="M917.8112 229.0688c-22.20032-30.28992-53.16608-65.69984-87.18336-99.69664s-69.40672-64.96256-99.69664-87.18336c-51.56864-37.82656-76.5952-42.1888-90.9312-42.1888l-496.00512 0c-44.11392 0-79.99488 35.88096-79.99488 79.99488l0 864.01024c0 44.11392 35.88096 79.99488 79.99488 79.99488l736.01024 0c44.11392 0 79.99488-35.88096 79.99488-79.99488l0-624.00512c0-14.336-4.36224-39.34208-42.1888-90.9312l0 0zM785.36704 174.63296c30.69952 30.69952 54.80448 58.38848 72.58112 81.36704l-153.94816 0 0-153.94816c22.97856 17.77664 50.688 41.8816 81.36704 72.58112l0 0zM896 944.00512c0 8.66304-7.33184 15.99488-15.99488 15.99488l-736.01024 0c-8.66304 0-15.99488-7.33184-15.99488-15.99488l0-864.01024c0-8.66304 7.33184-15.99488 15.99488-15.99488 0 0 495.96416 0 496.00512 0l0 224.01024c0 17.67424 14.31552 32.01024 32.01024 32.01024l224.01024 0 0 624.00512zM756.28544 391.24992c-7.41376-6.08256-17.16224-8.51968-26.56256-6.63552l-320 64c-14.9504 2.99008-25.72288 16.11776-25.72288 31.37536l0 236.87168c-18.8416-8.17152-40.67328-12.88192-64-12.88192-70.69696 0-128 42.98752-128 96.01024s57.30304 96.01024 128 96.01024 128-42.98752 128-96.01024l0-229.76512 256-51.2 0 133.8368c-18.8416-8.17152-40.67328-12.88192-64-12.88192-70.69696 0-128 42.98752-128 96.01024s57.30304 96.01024 128 96.01024 128-42.98752 128-96.01024l0-320c0-9.58464-4.3008-18.67776-11.71456-24.73984z"></path></g></g></svg>
