<?xml version="1.0" standalone="no"?><!DOCTYPE svg PUBLIC "-//W3C//DTD SVG 1.1//EN" "http://www.w3.org/Graphics/SVG/1.1/DTD/svg11.dtd"><svg width="200" height="200" viewBox="0 0 200 200" version="1.1" xmlns="http://www.w3.org/2000/svg" xmlns:xlink="http://www.w3.org/1999/xlink"><g class="transform-group"><g transform="scale(0.1953125, 0.1953125)"><path d="M841.357403 588.844968c-15.973811-15.963591-41.922312-15.963591-89.823306-21.952493-31.937403 5.988902-67.870813-1.992894-107.790012 9.985932-15.973811-15.974833-35.933411-19.969819-49.904108-37.926304-39.92022-27.951615-73.860737-87.830412-89.823306-137.73452 0-7.981796 1.991872-7.981796 1.991872-15.963591 0 1.992894 21.962713-125.756717 15.973811-161.690127 0-9.97469-2.003114-5.988902-2.003114-13.970697l-1.991872-3.996008c-5.988902-15.963591-17.966705-23.945387-35.933411-27.941395l-9.97469 1.992894c-23.955607-5.988902-33.940517 13.980917-41.922312 21.962713-9.97469 53.889896 0 117.764701 25.948501 217.572917l-5.988902 11.977804-59.878798 127.749611-1.992894 1.991872c-19.959599 39.92022-39.929418 73.860737-55.89301 103.795026l-17.966705 7.992016c0 1.991872-31.937403 15.962569-37.926304 21.951471-59.878798 31.937403-97.805102 77.845503-103.794004 105.797118-5.988902 15.963591 0 17.956485 9.97469 31.937403l15.973811 5.979704c3.996008 7.992016 17.966705 3.996008 21.952493 7.992016 43.915206-5.988902 91.82642-47.912236 159.687013-173.657711 77.855723-15.974833 163.683021-45.919342 243.531638-55.89301 57.885904 31.937403 133.729315 59.878798 177.643499 55.89301 7.990994 3.984766 15.973811-3.996008 19.959599 0 7.990994-7.992016 17.965683-3.996008 21.961691-17.966705 11.978826-5.988902 7.982818-33.940517 7.982818-47.912236 0-7.981796-5.988902-11.977804-9.975712-19.958577L841.356381 588.844968zM212.585061 814.408879c5.988902-25.949523 39.919198-59.89004 81.841511-101.80111 5.988902 0 7.981796-7.982818 17.966705-13.970697-49.904108 71.856601-75.852609 107.779792-99.808216 113.768693L212.585061 814.408879zM478.069192 199.606212c15.963591-5.978682 21.952493 37.926304 21.952493 65.877919 0 33.930297-5.988902 51.897002-15.963591 71.856601-3.996008-23.955607-11.977804-65.867699-11.977804-89.823306C472.080291 251.513434 474.073185 195.620424 478.069192 199.606212L478.069192 199.606212zM398.220576 634.762266c11.977804-11.977804 17.966705-33.940517 29.944509-51.907222 25.948501-45.9081 41.912092-81.831291 51.897002-113.768693 19.959599 47.900994 51.897002 75.853631 83.834405 107.791034 3.996008 0 11.977804 9.97469 13.970697 7.981796-67.860593 21.951471-125.746497 29.934289-179.646613 51.897002L398.220576 634.762266zM827.377508 630.766258c0 9.985932-17.956485 1.992894-21.951471 5.988902-25.949523-5.988902-55.89301-9.985932-97.805102-29.945531 13.970697 0 33.930297-5.98788 43.915206 0 25.948501-5.98788 31.937403 3.996008 55.88279 3.996008 25.949523 9.975712 25.949523 15.963591 19.959599 21.952493L827.37853 630.766258zM903.229095 197.613318 759.516915 57.885904c-29.945531-35.923191-91.827442-51.897002-135.732428-57.885904l-479.06104 2.003114c-43.915206-5.988902-79.848617 35.923191-79.848617 77.845503l0 864.302767c0 35.933411 35.933411 83.834405 79.848617 77.845503l734.560262 2.003114c43.904986-5.98788 79.838397-35.932389 79.838397-81.840489l0-604.817757C959.123127 287.436624 935.166498 233.546728 903.229095 197.613318L903.229095 197.613318zM857.322017 245.524532c5.988902 0 3.996008 9.97469 9.985932 9.97469l-163.683021 2.003114L703.624927 91.82642l11.977804 9.97469 141.720308 141.720308L857.323039 245.524532zM895.248321 944.151383c0 3.996008-5.988902 15.973811-15.963591 13.970697l-734.560262 2.003114c-9.98491-5.98788-15.973811-7.990994-15.973811-17.965683l0-860.316979c0-15.963591 5.988902-11.977804 15.973811-17.966705l479.06104 2.003114c3.985788-3.996008 11.967584 1.992894 15.963591-2.003114l0 257.502335 253.506328-2.003114c0 7.981796 1.992894 9.98491 1.992894 17.966705l0 604.817757L895.248321 944.151383z"></path></g></g></svg>
