<?xml version="1.0" standalone="no"?><!DOCTYPE svg PUBLIC "-//W3C//DTD SVG 1.1//EN" "http://www.w3.org/Graphics/SVG/1.1/DTD/svg11.dtd"><svg width="200" height="200" viewBox="0 0 200 200" version="1.1" xmlns="http://www.w3.org/2000/svg" xmlns:xlink="http://www.w3.org/1999/xlink"><g class="transform-group"><g transform="scale(0.1953125, 0.1953125)"><path d="M832 896l-640 0 0-128 192-320 263.008 320 184.992-128 0 256zM832 480c0 53.024-42.976 96-96 96s-96-42.976-96-96 42.976-96 96-96c53.024 0 96 42.976 96 96zM917.792 229.088c-22.208-30.304-53.184-65.696-87.168-99.712s-69.408-64.96-99.712-87.168c-51.584-37.824-76.576-42.208-90.912-42.208l-496 0c-44.096 0-80 35.872-80 80l0 864c0 44.096 35.904 80 80 80l736 0c44.096 0 80-35.904 80-80l0-624c0-14.336-4.384-39.36-42.208-90.912zM785.376 174.624c30.688 30.688 54.784 58.4 72.576 81.376l-153.952 0 0-153.952c22.976 17.792 50.688 41.888 81.376 72.576zM896 944c0 8.672-7.328 16-16 16l-736 0c-8.672 0-16-7.328-16-16l0-864c0-8.672 7.328-16 16-16 0 0 495.968 0 496 0l0 224c0 17.664 14.336 32 32 32l224 0 0 624z"></path></g></g></svg>
