<?xml version="1.0" standalone="no"?><!DOCTYPE svg PUBLIC "-//W3C//DTD SVG 1.1//EN" "http://www.w3.org/Graphics/SVG/1.1/DTD/svg11.dtd"><svg width="200" height="200" viewBox="0 0 200 200" version="1.1" xmlns="http://www.w3.org/2000/svg" xmlns:xlink="http://www.w3.org/1999/xlink"><g class="transform-group"><g transform="scale(0.1953125, 0.1953125)"><path d="M7.937984 7.937984 7.937984 7.937984 7.937984 7.937984ZM198.449612 515.968992l190.511628 0 0 63.503876-190.511628 0 0-63.503876zM198.449612 642.976744l190.511628 0 0 63.503876-190.511628 0 0-63.503876zM198.449612 769.984496l190.511628 0 0 63.503876-190.511628 0 0-63.503876zM904.374574 205.816062l-141.756527-141.756527c-30.862884-30.862884-91.842481-56.12155-135.501395-56.12155l-476.27907 0c-43.658915 0-79.379845 35.72093-79.379845 79.379845l0 857.302326c0 43.658915 35.72093 79.379845 79.379845 79.379845l730.294574 0c43.658915 0 79.379845-35.72093 79.379845-79.379845l0-603.286822c0-43.658915-25.258667-104.638512-56.12155-135.517271zM859.461457 250.729178c3.11169 3.11169 6.207504 6.921922 9.208062 11.22431l-162.188899 0 0-162.188899c4.302388 3.000558 8.11262 6.096372 11.22431 9.208062l141.756527 141.756527zM896.992248 944.620155c0 8.604775-7.271194 15.875969-15.875969 15.875969l-730.294574 0c-8.604775 0-15.875969-7.271194-15.875969-15.875969l0-857.302326c0-8.604775 7.271194-15.875969 15.875969-15.875969l476.27907 0c4.794543 0 10.176496 0.603287 15.875969 1.682853l0 252.316775 252.332651 0c1.079566 5.699473 1.682853 11.081426 1.682853 15.875969l0 603.286822zM579.472868 706.48062l187.336434 0c-14.717023 72.473798-78.776558 127.007752-155.584496 127.007752-87.682977 0-158.75969-71.076713-158.75969-158.75969 0-76.807938 54.549829-140.867473 127.007752-155.584496l0 187.336434zM674.728682 452.465116c87.682977 0 158.75969 71.076713 158.75969 158.75969 0 10.875039-1.095442 21.496062-3.175194 31.751938l-187.336434 0 0-187.336434c10.255876-2.079752 20.876899-3.19107 31.751938-3.19107z"></path></g></g></svg>
