<?xml version="1.0" standalone="no"?><!DOCTYPE svg PUBLIC "-//W3C//DTD SVG 1.1//EN" "https://www.w3.org/Graphics/SVG/1.1/DTD/svg11.dtd"><svg width="200" height="200" viewBox="0 0 200 200" version="1.1" xmlns="https://www.w3.org/2000/svg" xmlns:xlink="https://www.w3.org/1999/xlink"><g class="transform-group"><g transform="scale(0.1953125, 0.1953125)"><path d="M416 128l96 0 0 64-96 0zM320 192l96 0 0 64-96 0zM416 256l96 0 0 64-96 0zM320 320l96 0 0 64-96 0zM416 384l96 0 0 64-96 0zM320 448l96 0 0 64-96 0zM416 512l0 64-96 0 0 224c0 17.664 14.336 32 32 32l128 0c17.664 0 32-14.336 32-32l0-288-96 0zM480 768l-128 0 0-64 128 0 0 64zM903.424 199.424l-142.88-142.848c-31.104-31.104-92.576-56.576-136.576-56.576l-480 0c-44 0-80 36-80 80l0 864c0 44 36 80 80 80l736 0c44 0 80-36 80-80l0-608c0-44-25.472-105.472-56.576-136.576zM858.176 244.672c3.136 3.136 6.24 6.976 9.28 11.328l-163.456 0 0-163.456c4.352 3.04 8.192 6.144 11.328 9.28l142.88 142.848zM896 944c0 8.672-7.328 16-16 16l-736 0c-8.672 0-16-7.328-16-16l0-864c0-8.672 7.328-16 16-16l480 0c4.832 0 10.24 0.608 16 1.696l0 254.304 254.304 0c1.088 5.76 1.696 11.168 1.696 16l0 608z"></path></g></g></svg>
