<?xml version="1.0" standalone="no"?><!DOCTYPE svg PUBLIC "-//W3C//DTD SVG 1.1//EN" "http://www.w3.org/Graphics/SVG/1.1/DTD/svg11.dtd"><svg t="1552642300180" class="icon" style="" viewBox="0 0 1024 1024" version="1.1" xmlns="http://www.w3.org/2000/svg" p-id="26657" xmlns:xlink="http://www.w3.org/1999/xlink" width="200" height="200"><defs><style type="text/css"></style></defs><path d="M331.84 827.936l49.504-49.504C419.68 791.936 463.04 800 512 800c250.4 0 355.84-211.52 382.016-276.48a30.4 30.4 0 0 0 0-21.664c-11.84-29.984-39.84-89.6-90.112-145.984l44.736-44.736c58.24 64.8 90.816 133.28 104.928 167.072 8.576 22.08 8.576 45.536 0 67.584C922.4 620.416 801.408 864 512 864c-69.44 0-129.12-13.888-180.16-36.064z m-156.704-114.848c-58.24-64.864-90.56-133.44-104.704-167.296a91.968 91.968 0 0 1 0-67.584C101.6 403.584 221.248 160 512 160c69.312 0 128.96 13.952 180 36.224l-49.344 49.344C604.32 232.064 560.96 224 512 224 261.6 224 156.16 435.52 129.984 500.48a30.4 30.4 0 0 0 0 21.664c11.84 29.984 39.84 89.6 90.112 145.984l-44.96 44.96z m314.24-42.688l88.384-88.416a96.32 96.32 0 0 0 4.224-4.224l88.416-88.384c1.056 7.392 1.6 14.944 1.6 22.624 0 87.68-71.808 160-160 160-7.68 0-15.232-0.544-22.624-1.6z m-135.776-135.776A159.168 159.168 0 0 1 352 512c0-87.68 71.808-160 160-160 7.68 0 15.232 0.544 22.624 1.6l-181.024 181.024z m452.544-316.8a32 32 0 0 1 0 45.28l-543.04 543.04a32 32 0 0 1-45.248-45.248l543.04-543.04a32 32 0 0 1 45.248 0z" fill="" p-id="26658"></path></svg>
