<?xml version="1.0" standalone="no"?><!DOCTYPE svg PUBLIC "-//W3C//DTD SVG 1.1//EN" "http://www.w3.org/Graphics/SVG/1.1/DTD/svg11.dtd"><svg t="1552640092134" class="icon" style="" viewBox="0 0 1024 1024" version="1.1" xmlns="http://www.w3.org/2000/svg" p-id="11611" xmlns:xlink="http://www.w3.org/1999/xlink" width="200" height="200"><defs><style type="text/css"></style></defs><path d="M592.096 64l2.016 0.032a56.128 56.128 0 0 1 52.736 69.248l-50.304 263.648 161.76 0.256c21.088 0.16 40.32 12.064 49.824 30.816 9.504 18.72 7.68 41.216-4.704 58.208l-314.4 450.656c-10.88 14.88-25.344 23.136-42.944 23.136a56.224 56.224 0 0 1-55.296-66.368l50.88-299.84-161.792-1.184a56.352 56.352 0 0 1-49.824-30.784 55.84 55.84 0 0 1 4.704-58.24l313.984-415.872a53.92 53.92 0 0 1 14.624-14.208c7.776-5.248 14.336-8.544 24.256-9.344a61.44 61.44 0 0 1 4.48-0.16z" fill="" fill-opacity=".8" p-id="11612"></path></svg>
