<?xml version="1.0" standalone="no"?><!DOCTYPE svg PUBLIC "-//W3C//DTD SVG 1.1//EN" "http://www.w3.org/Graphics/SVG/1.1/DTD/svg11.dtd"><svg t="1552641031516" class="icon" style="" viewBox="0 0 1024 1024" version="1.1" xmlns="http://www.w3.org/2000/svg" p-id="24186" xmlns:xlink="http://www.w3.org/1999/xlink" width="200" height="200"><defs><style type="text/css"></style></defs><path d="M352 288h64v384h-64zM256 288h32v384H256zM480 288h32v384h-32zM736 288h32v384h-32zM576 288h96v384h-96z" fill="" p-id="24187"></path><path d="M128 928a32 32 0 0 1-64 0V224a160 160 0 0 1 160-160h576a160 160 0 0 1 160 160v704a32 32 0 0 1-64 0V224a96 96 0 0 0-96-96H224a96 96 0 0 0-96 96v704z" fill="" p-id="24188"></path><path d="M115.2 953.6a32 32 0 0 1-38.4-51.2l128-96a32 32 0 0 1 35.648-1.824l142.656 85.568 127.136-84.8a32 32 0 0 1 35.52 0l125.152 83.456L780.8 806.4a32 32 0 0 1 38.4 0l128 96a32 32 0 0 1-38.4 51.2L800 872l-108.8 81.6a32 32 0 0 1-36.96 1.024l-126.24-84.16-126.24 84.16a32 32 0 0 1-34.24 0.8l-141.536-84.928L115.2 953.6z m574.56-52.224L652.8 902.4l18.112-13.6 18.848 12.576z m-289.28-0.8l-34.24 0.8 16.864-11.232 17.344 10.432z" fill="" p-id="24189"></path></svg>
