<?xml version="1.0" standalone="no"?><!DOCTYPE svg PUBLIC "-//W3C//DTD SVG 1.1//EN" "http://www.w3.org/Graphics/SVG/1.1/DTD/svg11.dtd"><svg t="1552647255573" class="icon" style="" viewBox="0 0 1024 1024" version="1.1" xmlns="http://www.w3.org/2000/svg" p-id="30982" xmlns:xlink="http://www.w3.org/1999/xlink" width="200" height="200"><defs><style type="text/css"></style></defs><path d="M902.4 121.6c-73.6-76.8-198.4-76.8-272 0l-112 115.2c-12.8 12.8-12.8 35.2 0 48 12.8 12.8 32 12.8 44.8 0l112-115.2c51.2-51.2 131.2-51.2 182.4 0 51.2 51.2 51.2 134.4 0 185.6l-182.4 185.6c-51.2 51.2-131.2 51.2-182.4 0-12.8-12.8-32-12.8-44.8 0s-12.8 35.2 0 48c73.6 76.8 198.4 76.8 272 0l182.4-185.6c76.8-80 76.8-204.8 0-281.6z" fill="" p-id="30983"></path><path d="M460.8 739.2l-112 115.2c-51.2 51.2-131.2 51.2-182.4 0-51.2-51.2-51.2-134.4 0-185.6l182.4-185.6c51.2-51.2 131.2-51.2 182.4 0 12.8 12.8 32 12.8 44.8 0 12.8-12.8 12.8-35.2 0-48-73.6-76.8-198.4-76.8-272 0l-182.4 185.6c-76.8 76.8-73.6 201.6 0 278.4 73.6 76.8 198.4 76.8 272 0l112-115.2c12.8-12.8 12.8-35.2 0-48-12.8-9.6-32-9.6-44.8 3.2z" fill="" p-id="30984"></path></svg>
