<?xml version="1.0" standalone="no"?><!DOCTYPE svg PUBLIC "-//W3C//DTD SVG 1.1//EN" "http://www.w3.org/Graphics/SVG/1.1/DTD/svg11.dtd"><svg t="1552641474735" class="icon" style="" viewBox="0 0 1024 1024" version="1.1" xmlns="http://www.w3.org/2000/svg" p-id="25538" xmlns:xlink="http://www.w3.org/1999/xlink" width="200" height="200"><defs><style type="text/css"></style></defs><path d="M113.777778 56.888889h312.888889a56.888889 56.888889 0 0 1 56.888889 56.888889v312.888889a56.888889 56.888889 0 0 1-56.888889 56.888889H113.777778a56.888889 56.888889 0 0 1-56.888889-56.888889V113.777778a56.888889 56.888889 0 0 1 56.888889-56.888889z m0 85.333333v256a28.444444 28.444444 0 0 0 28.444444 28.444445h256a28.444444 28.444444 0 0 0 28.444445-28.444445V142.222222a28.444444 28.444444 0 0 0-28.444445-28.444444H142.222222a28.444444 28.444444 0 0 0-28.444444 28.444444z m0 398.222222h312.888889a56.888889 56.888889 0 0 1 56.888889 56.888889v312.888889a56.888889 56.888889 0 0 1-56.888889 56.888889H113.777778a56.888889 56.888889 0 0 1-56.888889-56.888889V597.333333a56.888889 56.888889 0 0 1 56.888889-56.888889z m0 85.333334v256a28.444444 28.444444 0 0 0 28.444444 28.444444h256a28.444444 28.444444 0 0 0 28.444445-28.444444v-256a28.444444 28.444444 0 0 0-28.444445-28.444445H142.222222a28.444444 28.444444 0 0 0-28.444444 28.444445zM597.333333 56.888889h312.888889a56.888889 56.888889 0 0 1 56.888889 56.888889v312.888889a56.888889 56.888889 0 0 1-56.888889 56.888889H597.333333a56.888889 56.888889 0 0 1-56.888889-56.888889V113.777778a56.888889 56.888889 0 0 1 56.888889-56.888889z m0 85.333333v256a28.444444 28.444444 0 0 0 28.444445 28.444445h256a28.444444 28.444444 0 0 0 28.444444-28.444445V142.222222a28.444444 28.444444 0 0 0-28.444444-28.444444h-256a28.444444 28.444444 0 0 0-28.444445 28.444444z m0 398.222222h312.888889a56.888889 56.888889 0 0 1 56.888889 56.888889v312.888889a56.888889 56.888889 0 0 1-56.888889 56.888889H597.333333a56.888889 56.888889 0 0 1-56.888889-56.888889V597.333333a56.888889 56.888889 0 0 1 56.888889-56.888889z m0 85.333334v256a28.444444 28.444444 0 0 0 28.444445 28.444444h256a28.444444 28.444444 0 0 0 28.444444-28.444444v-256a28.444444 28.444444 0 0 0-28.444444-28.444445h-256a28.444444 28.444444 0 0 0-28.444445 28.444445z" fill="" p-id="25539"></path></svg>
