<?xml version="1.0" standalone="no"?><!DOCTYPE svg PUBLIC "-//W3C//DTD SVG 1.1//EN" "https://www.w3.org/Graphics/SVG/1.1/DTD/svg11.dtd"><svg t="1552641490658" class="icon" style="" viewBox="0 0 1024 1024" version="1.1" xmlns="https://www.w3.org/2000/svg" p-id="25762" xmlns:xlink="https://www.w3.org/1999/xlink" width="200" height="200"><defs><style type="text/css"></style></defs><path d="M895.2 181.824l-334.08 334.08 332.704 332.672c1.408-5.28 2.176-10.848 2.176-16.576V192c0-3.456-0.288-6.848-0.8-10.176z m-40.736-49.76A63.872 63.872 0 0 0 832 128H192c-5.76 0-11.296 0.768-16.576 2.176l340.48 340.48 338.56-338.592zM181.824 895.2c3.328 0.512 6.72 0.8 10.176 0.8h640c5.76 0 11.296-0.768 16.576-2.176L515.872 561.152 181.824 895.2z m-49.76-40.736l338.56-338.56-340.48-340.48A64.096 64.096 0 0 0 128 192v640c0 7.904 1.44 15.456 4.064 22.464zM192 64h640a128 128 0 0 1 128 128v640a128 128 0 0 1-128 128H192a128 128 0 0 1-128-128V192a128 128 0 0 1 128-128z" fill="" p-id="25763"></path></svg>
