<?xml version="1.0" standalone="no"?><!DOCTYPE svg PUBLIC "-//W3C//DTD SVG 1.1//EN" "https://www.w3.org/Graphics/SVG/1.1/DTD/svg11.dtd"><svg t="1552642702646" class="icon" style="" viewBox="0 0 1024 1024" version="1.1" xmlns="https://www.w3.org/2000/svg" p-id="27215" xmlns:xlink="https://www.w3.org/1999/xlink" width="200" height="200"><defs><style type="text/css"></style></defs><path d="M268.8 544h89.6c19.2 0 32-16 32-32 0-19.2-16-32-32-32H268.8c-19.2 0-32 16-32 32 0 19.2 16 32 32 32zM268.8 358.4h89.6c19.2 0 32-16 32-32s-16-32-32-32H268.8c-19.2 0-32 16-32 32s16 32 32 32zM390.4 700.8c0-19.2-16-32-32-32H268.8c-19.2 0-32 16-32 32s16 32 32 32h89.6c19.2 0 32-16 32-32z" fill="" p-id="27216"></path><path d="M304 224v32h54.4c35.2 0 67.2 28.8 67.2 67.2 0 35.2-28.8 67.2-67.2 67.2H304v54.4h54.4c35.2 0 67.2 28.8 67.2 67.2 0 35.2-28.8 67.2-67.2 67.2H304v54.4h54.4c35.2 0 67.2 28.8 67.2 67.2 0 35.2-28.8 67.2-67.2 67.2H304v32c0 19.2 16 32 32 32h352V192h-352c-19.2 0-32 16-32 32zM755.2 192h-32v640h32c19.2 0 32-16 32-32V224c0-16-16-32-32-32z" fill="" p-id="27217"></path></svg>
