<?xml version="1.0" standalone="no"?><!DOCTYPE svg PUBLIC "-//W3C//DTD SVG 1.1//EN" "http://www.w3.org/Graphics/SVG/1.1/DTD/svg11.dtd"><svg t="1552641059721" class="icon" style="" viewBox="0 0 1024 1024" version="1.1" xmlns="http://www.w3.org/2000/svg" p-id="24418" xmlns:xlink="http://www.w3.org/1999/xlink" width="200" height="200"><defs><style type="text/css"></style></defs><path d="M544 129.6c161.696 16.032 288 152.48 288 318.4v320h32a32 32 0 0 1 0 64h-224a128 128 0 1 1-256 0H160a32 32 0 0 1 0-64h32V448c0-165.92 126.304-302.368 288-318.4V96a32 32 0 0 1 64 0v33.6zM768 768V448a256 256 0 1 0-512 0v320H192z m-192 64h-128a64 64 0 1 0 128 0z" fill="" p-id="24419"></path></svg>
