<?xml version="1.0" standalone="no"?><!DOCTYPE svg PUBLIC "-//W3C//DTD SVG 1.1//EN" "http://www.w3.org/Graphics/SVG/1.1/DTD/svg11.dtd"><svg t="1552645377085" class="icon" style="" viewBox="0 0 1024 1024" version="1.1" xmlns="http://www.w3.org/2000/svg" p-id="11829" xmlns:xlink="http://www.w3.org/1999/xlink" width="200" height="200"><defs><style type="text/css"></style></defs><path d="M771.104 692.416V256.448a30.944 30.944 0 0 0-9.6-22.912 34.528 34.528 0 0 0-24-9.536c-18.624 0.32-33.568 14.784-33.568 32.448v435.968l-134.304-127.296a33.792 33.792 0 0 0-23.84-9.664c-9.024 0-17.632 3.488-23.872 9.664a31.008 31.008 0 0 0-9.92 22.592c0 8.512 3.584 16.64 9.92 22.592l190.08 180.128c6.176 6.08 14.656 9.504 23.52 9.536 8.896 0.32 17.568-2.624 24.192-8.256l190.08-180.128a30.4 30.4 0 0 0 10.208-22.592 30.4 30.4 0 0 0-10.24-22.592 34.56 34.56 0 0 0-23.84-9.408c-8.96 0-17.536 3.392-23.84 9.408l-130.976 126.016zM88.864 736h398.24c13.76 0 24.896 14.176 24.896 31.68 0 17.504-11.136 31.68-24.896 31.68H88.896c-13.76 0-24.896-14.176-24.896-31.68 0-17.504 11.136-31.68 24.896-31.68z m1.792-256h266.688c14.72 0 26.656 14.176 26.656 31.68 0 17.504-11.936 31.68-26.656 31.68H90.656c-14.72 0-26.656-14.176-26.656-31.68 0-17.504 11.936-31.68 26.656-31.68z m396.48-256H88.864C75.136 224 64 238.176 64 255.68c0 17.504 11.136 31.68 24.896 31.68h398.208c13.76 0 24.896-14.176 24.896-31.68 0-17.504-11.136-31.68-24.896-31.68z" fill="" p-id="11830"></path></svg>
