<?xml version="1.0" standalone="no"?><!DOCTYPE svg PUBLIC "-//W3C//DTD SVG 1.1//EN" "https://www.w3.org/Graphics/SVG/1.1/DTD/svg11.dtd"><svg t="1552641343533" class="icon" style="" viewBox="0 0 1024 1024" version="1.1" xmlns="https://www.w3.org/2000/svg" p-id="25207" xmlns:xlink="https://www.w3.org/1999/xlink" width="200" height="200"><defs><style type="text/css"></style></defs><path d="M512.564 956.26c-251.766 0-456.114-204.348-456.114-454.985 0-251.767 204.348-456.115 456.114-456.115 250.638 0 454.986 204.348 454.986 454.986 0 251.766-204.348 456.114-454.986 456.114z m0-854.65C292.41 101.61 112.9 281.12 112.9 501.275S292.41 899.81 511.436 899.81 909.97 720.3 909.97 501.275C911.101 281.12 731.59 101.61 512.564 101.61z" fill="" p-id="25208"></path><path d="M687.559 591.594H336.441c-15.806 0-28.225-12.419-28.225-28.225s12.42-28.225 28.225-28.225h351.118c15.806 0 28.225 12.42 28.225 28.225s-12.42 28.225-28.225 28.225z m0-162.575H336.441c-15.806 0-28.225-12.42-28.225-28.225s12.42-28.225 28.225-28.225h351.118c15.806 0 28.225 12.419 28.225 28.225s-12.42 28.225-28.225 28.225z" fill="" p-id="25209"></path><path d="M512.564 786.91c-15.805 0-28.224-12.418-28.224-28.224V407.568c0-15.806 12.419-28.225 28.224-28.225s28.225 12.419 28.225 28.225v351.118c0 15.806-13.548 28.225-28.225 28.225z" fill="" p-id="25210"></path><path d="M459.502 415.47c-10.161 0-20.322-5.644-24.838-15.805l-56.45-110.642c-6.774-13.548-1.13-30.483 12.419-38.386 13.548-6.774 30.483-1.129 38.386 12.42l56.45 110.64c6.774 13.549 1.129 30.484-12.42 38.387-5.644 2.258-9.031 3.387-13.547 3.387z m119.673 0c-4.516 0-9.032-1.128-12.419-3.386-13.548-6.774-19.193-23.71-12.419-38.386l56.45-110.642c6.774-13.548 23.71-19.193 38.386-12.419 13.548 6.774 19.193 23.71 12.42 38.386l-56.45 110.642c-6.775 10.16-15.807 15.806-25.968 15.806z" fill="" p-id="25211"></path></svg>
