<?xml version="1.0" standalone="no"?><!DOCTYPE svg PUBLIC "-//W3C//DTD SVG 1.1//EN" "https://www.w3.org/Graphics/SVG/1.1/DTD/svg11.dtd"><svg t="1552647270833" class="icon" style="" viewBox="0 0 1024 1024" version="1.1" xmlns="https://www.w3.org/2000/svg" p-id="31312" xmlns:xlink="https://www.w3.org/1999/xlink" width="200" height="200"><defs><style type="text/css"></style></defs><path d="M652.8 534.4c70.4-44.8 115.2-124.8 115.2-214.4 0-140.8-115.2-256-256-256s-256 115.2-256 256c0 89.6 44.8 169.6 115.2 214.4C192 592 64 761.6 64 960h64c0-211.2 172.8-384 384-384s384 172.8 384 384h64c0-198.4-128-368-307.2-425.6zM512 512c-105.6 0-192-86.4-192-192s86.4-192 192-192 192 86.4 192 192-86.4 192-192 192z" fill="" p-id="31313"></path></svg>
