<?xml version="1.0" standalone="no"?><!DOCTYPE svg PUBLIC "-//W3C//DTD SVG 1.1//EN" "http://www.w3.org/Graphics/SVG/1.1/DTD/svg11.dtd"><svg t="1552647260182" class="icon" style="" viewBox="0 0 1024 1024" version="1.1" xmlns="http://www.w3.org/2000/svg" p-id="31092" xmlns:xlink="http://www.w3.org/1999/xlink" width="200" height="200"><defs><style type="text/css"></style></defs><path d="M128 64H64v896h896v-64H128V64z" fill="" p-id="31093"></path><path d="M480 259.2V576h278.4c-28.8 108.8-128 192-246.4 192-140.8 0-256-115.2-256-256 0-131.2 99.2-236.8 224-252.8M512 192C336 192 192 336 192 512s144 320 320 320 320-144 320-320h-288V192h-32z" fill="" p-id="31094"></path><path d="M672 134.4c124.8 22.4 201.6 112 220.8 249.6H672V134.4M608 64v384h352c0-224-128-384-352-384z" fill="" p-id="31095"></path></svg>
