<?xml version="1.0" standalone="no"?><!DOCTYPE svg PUBLIC "-//W3C//DTD SVG 1.1//EN" "https://www.w3.org/Graphics/SVG/1.1/DTD/svg11.dtd"><svg t="1552641633022" class="icon" style="" viewBox="0 0 1024 1024" version="1.1" xmlns="https://www.w3.org/2000/svg" p-id="26319" xmlns:xlink="https://www.w3.org/1999/xlink" width="200" height="200"><defs><style type="text/css"></style></defs><path d="M833.024 867.52l21.984-122.528c20.16-112.64 33.376-188.352 35.616-204.352 6.144-44.256-2.016-52.48-48.512-51.488-16.64 0.352-57.024 0.608-114.24 0.736-26.656 0.064-55.168 0.128-83.68 0.128l-27.584 0.032h-10.464c-24.352 0-39.776-26.432-28-48 0.768-1.408 2.56-5.184 5.088-11.328 4.48-10.912 9.024-24.256 13.312-39.936 12.512-45.792 20.064-101.216 20.064-166.272 0-56.288-26.656-92.384-54.72-93.984-27.072-1.536-51.136 31.936-51.136 103.68 0 96.224-42.56 169.28-112.288 220.48a344 344 0 0 1-85.888 46.4v394.304h515.424l5.024-27.84zM727.68 425.184c56.736-0.128 97.024-0.352 113.12-0.704 84.16-1.792 125.088 39.456 113.184 125.184-2.4 17.344-15.52 92.288-36 206.88a89752.448 89752.448 0 0 1-29.12 162.208l-2.016 10.976-0.512 2.88c-2.976 16.384-16.224 27.552-31.68 27.552H280.576c-17.696 0-32-14.496-32-32.352V477.12c0-14.944 10.112-27.936 24.448-31.456a210.56 210.56 0 0 0 26.528-9.184 286.816 286.816 0 0 0 61.28-34.112c54.176-39.84 85.92-94.304 85.92-168.128 0-104.736 48.576-172.352 118.72-168.32 65.6 3.744 115.136 70.784 115.136 158.592 0 70.944-8.32 132.16-22.4 183.488-1.664 6.144-3.328 11.904-5.024 17.28 25.44 0 50.752-0.064 74.496-0.128z" fill="" p-id="26320"></path><path d="M137.312 502.304h164c20.224 0 36.64-14.496 36.64-32.416 0-17.92-16.416-32.448-36.64-32.448h-200.64c-20.256 0-36.672 14.528-36.672 32.448v457.664C64 945.472 80.416 960 100.672 960H279.04c20.256 0 36.672-14.528 36.672-32.448s-16.416-32.416-36.672-32.416H137.312V502.304z" fill="" p-id="26321"></path></svg>
