<?xml version="1.0" standalone="no"?><!DOCTYPE svg PUBLIC "-//W3C//DTD SVG 1.1//EN" "https://www.w3.org/Graphics/SVG/1.1/DTD/svg11.dtd"><svg t="1552647251161" class="icon" style="" viewBox="0 0 1024 1024" version="1.1" xmlns="https://www.w3.org/2000/svg" p-id="30873" xmlns:xlink="https://www.w3.org/1999/xlink" width="200" height="200"><defs><style type="text/css"></style></defs><path d="M704 256h192.288C931.488 256 960 284.64 960 319.808v384.384C960 739.424 931.2 768 896.288 768H768v-128H256v128H127.712C92.512 768 64 739.36 64 704.192V319.808C64 284.576 92.8 256 127.712 256H320V96h384v160z m128 448h32c17.696 0 32-14.368 32-32.064v-319.872c0-17.472-14.336-32.064-32-32.064H160c-17.696 0-32 14.368-32 32.064v319.872C128 689.408 142.336 704 160 704h32v-128h640v128z m-512 0h384v224H320v-224z m64 0v160h256v-160h-256z m0-544v96h256V160h-256z m-192 224h192v64H192v-64z" fill="" p-id="30874"></path></svg>
