<?xml version="1.0" standalone="no"?><!DOCTYPE svg PUBLIC "-//W3C//DTD SVG 1.1//EN" "http://www.w3.org/Graphics/SVG/1.1/DTD/svg11.dtd">
<svg t="1537326221399" class="icon" style="" viewBox="0 0 1024 1024" version="1.1" 
  xmlns="http://www.w3.org/2000/svg" p-id="5549" 
  xmlns:xlink="http://www.w3.org/1999/xlink" width="200" height="200">
  <defs>
    <style type="text/css"></style>
  </defs>
  <path d="M281.12 128C151.008 206.4 64 349.024 64 512c0 247.424 200.576 448 448 448a32 32 0 0 0 0-64C299.936 896 128 724.064 128 512c0-154.976 91.808-288.512 224-349.184V288.64c0 17.344 14.848 31.392 32 31.392 17.664 0 32-13.76 32-31.392V95.392a30.88 30.88 0 0 0-9.376-21.984l0.096-0.224A30.944 30.944 0 0 0 384.608 64H191.392C174.048 64 160 78.848 160 96c0 17.664 13.76 32 31.392 32h89.728z m461.76 768C872.992 817.6 960 674.976 960 512c0-247.424-200.576-448-448-448a32 32 0 0 0 0 64c212.064 0 384 171.936 384 384 0 154.976-91.808 288.512-224 349.184V735.36c0-17.344-14.848-31.392-32-31.392-17.664 0-32 13.76-32 31.392v193.216c0 8.576 3.616 16.32 9.376 21.984l-0.096 0.224a30.944 30.944 0 0 0 22.112 9.184h193.216c17.344 0 31.392-14.848 31.392-32 0-17.664-13.76-32-31.392-32h-89.728z" p-id="5550"></path>
</svg>