<?xml version="1.0" standalone="no"?><!DOCTYPE svg PUBLIC "-//W3C//DTD SVG 1.1//EN" "https://www.w3.org/Graphics/SVG/1.1/DTD/svg11.dtd"><svg t="1552642288774" class="icon" style="" viewBox="0 0 1024 1024" version="1.1" xmlns="https://www.w3.org/2000/svg" p-id="26429" xmlns:xlink="https://www.w3.org/1999/xlink" width="200" height="200"><defs><style type="text/css"></style></defs><path d="M320 96a256 256 0 0 0-256 256c0 60.672 21.216 118.304 59.104 164.16L488.32 917.504a32 32 0 0 0 47.36 0l87.488-96.256a32 32 0 0 0-47.36-43.04L512 848.448 171.456 474.208A192.32 192.32 0 0 1 128 352a192 192 0 0 1 356.576-98.912 32 32 0 0 0 54.848 0A192 192 0 0 1 896 352a32 32 0 0 0 64 0 256 256 0 0 0-448-169.344A255.616 255.616 0 0 0 320 96z" fill="" p-id="26430"></path><path d="M583.136 608h320a32 32 0 1 0 0-64h-320a32 32 0 0 0 0 64z" fill="" p-id="26431"></path><path d="M711.136 416v320a32 32 0 1 0 64 0V416a32 32 0 0 0-64 0z" fill="" p-id="26432"></path></svg>
