<?xml version="1.0" standalone="no"?><!DOCTYPE svg PUBLIC "-//W3C//DTD SVG 1.1//EN" "http://www.w3.org/Graphics/SVG/1.1/DTD/svg11.dtd"><svg t="1552641627969" class="icon" style="" viewBox="0 0 1024 1024" version="1.1" xmlns="http://www.w3.org/2000/svg" p-id="26210" xmlns:xlink="http://www.w3.org/1999/xlink" width="200" height="200"><defs><style type="text/css"></style></defs><path d="M256 128H160a32 32 0 0 0-32 32v704a32 32 0 0 0 32 32h704a32 32 0 0 0 32-32V160a32 32 0 0 0-32-32h-96v320a64 64 0 0 1-64 64H320a64 64 0 0 1-64-64V128zM128 64h768a64 64 0 0 1 64 64v768a64 64 0 0 1-64 64H128a64 64 0 0 1-64-64V128a64 64 0 0 1 64-64z m192 64v288a32 32 0 0 0 32 32h320a32 32 0 0 0 32-32V128H320z m288 64a32 32 0 0 1 32 32v128a32 32 0 0 1-64 0V224a32 32 0 0 1 32-32z" fill="" p-id="26211"></path></svg>
