<?xml version="1.0" standalone="no"?><!DOCTYPE svg PUBLIC "-//W3C//DTD SVG 1.1//EN" "http://www.w3.org/Graphics/SVG/1.1/DTD/svg11.dtd"><svg t="1552643488921" class="icon" style="" viewBox="0 0 1024 1024" version="1.1" xmlns="http://www.w3.org/2000/svg" p-id="29335" xmlns:xlink="http://www.w3.org/1999/xlink" width="200" height="200"><defs><style type="text/css"></style></defs><path d="M729.248 684.864l189.472 189.504a31.392 31.392 0 1 1-44.448 44.448L684.8 729.28a375.68 375.68 0 0 1-243.584 89.184C232.896 818.496 64 649.6 64 441.28 64 232.96 232.896 64 441.216 64c208.32 0 377.216 168.896 377.216 377.28 0 92.832-33.568 177.856-89.184 243.584z m-288.032 70.752c173.6 0 314.336-140.736 314.336-314.368s-140.736-314.368-314.336-314.368c-173.6 0-314.336 140.736-314.336 314.368s140.736 314.368 314.336 314.368zM252.608 441.28c0-17.344 10.56-31.424 23.584-31.424h330.048c13.024 0 23.584 14.08 23.584 31.424 0 17.376-10.56 31.456-23.584 31.456H276.192c-12.928-0.32-23.36-14.24-23.584-31.456z" fill="" p-id="29336"></path></svg>
