<?xml version="1.0" standalone="no"?><!DOCTYPE svg PUBLIC "-//W3C//DTD SVG 1.1//EN" "https://www.w3.org/Graphics/SVG/1.1/DTD/svg11.dtd"><svg t="1552641099711" class="icon" style="" viewBox="0 0 1024 1024" version="1.1" xmlns="https://www.w3.org/2000/svg" p-id="24751" xmlns:xlink="https://www.w3.org/1999/xlink" width="200" height="200"><defs><style type="text/css"></style></defs><path d="M96 480h832a32 32 0 0 1 0 64H96a32 32 0 0 1 0-64zM128 64h224a32 32 0 0 1 0 64H160a32 32 0 0 0-32 32v192a32 32 0 0 1-64 0V128a64 64 0 0 1 64-64z m32 832h192a32 32 0 0 1 0 64H128a64 64 0 0 1-64-64v-224a32 32 0 0 1 64 0v192a32 32 0 0 0 32 32z m704 0a32 32 0 0 0 32-32v-192a32 32 0 0 1 64 0v224a64 64 0 0 1-64 64h-224a32 32 0 0 1 0-64h192z m96-544a32 32 0 0 1-64 0V160a32 32 0 0 0-32-32h-192a32 32 0 0 1 0-64h224a64 64 0 0 1 64 64v224z" fill="" p-id="24752"></path></svg>
