<?xml version="1.0" standalone="no"?><!DOCTYPE svg PUBLIC "-//W3C//DTD SVG 1.1//EN" "https://www.w3.org/Graphics/SVG/1.1/DTD/svg11.dtd"><svg t="1552643353671" class="icon" style="" viewBox="0 0 1024 1024" version="1.1" xmlns="https://www.w3.org/2000/svg" p-id="28663" xmlns:xlink="https://www.w3.org/1999/xlink" width="200" height="200"><defs><style type="text/css"></style></defs><path d="M128 256c0-35.36 28.736-64 63.936-64h64.128C291.392 192 320 220.416 320 256c0 35.36-28.736 64-63.936 64H191.936A63.808 63.808 0 0 1 128 256z m0 256c0-35.36 28.736-64 63.936-64h64.128C291.392 448 320 476.416 320 512c0 35.36-28.736 64-63.936 64H191.936A63.808 63.808 0 0 1 128 512z m0 256c0-35.36 28.736-64 63.936-64h64.128C291.392 704 320 732.416 320 768c0 35.36-28.736 64-63.936 64H191.936A63.808 63.808 0 0 1 128 768z m256-512c0-35.36 28.64-64 63.808-64h384.384C867.424 192 896 220.416 896 256c0 35.36-28.64 64-63.808 64H447.808A63.744 63.744 0 0 1 384 256z m0 256c0-35.36 28.64-64 63.808-64h384.384c35.232 0 63.808 28.416 63.808 64 0 35.36-28.64 64-63.808 64H447.808A63.744 63.744 0 0 1 384 512z m0 256c0-35.36 28.64-64 63.808-64h384.384c35.232 0 63.808 28.416 63.808 64 0 35.36-28.64 64-63.808 64H447.808A63.744 63.744 0 0 1 384 768z" fill="" p-id="28664"></path></svg>
