<?xml version="1.0" standalone="no"?><!DOCTYPE svg PUBLIC "-//W3C//DTD SVG 1.1//EN" "https://www.w3.org/Graphics/SVG/1.1/DTD/svg11.dtd"><svg t="1552644582766" class="icon" style="" viewBox="0 0 1024 1024" version="1.1" xmlns="https://www.w3.org/2000/svg" p-id="30213" xmlns:xlink="https://www.w3.org/1999/xlink" width="200" height="200"><defs><style type="text/css"></style></defs><path d="M480 672h-64.096c-17.408 0-31.904 14.336-31.904 32 0 17.792 14.272 32 31.904 32h192.192c17.408 0 31.904-14.336 31.904-32 0-17.792-14.272-32-31.904-32H544v-224.16a31.744 31.744 0 0 0-9.376-22.4A31.552 31.552 0 0 0 512 416h-96c-17.792 0-32 14.336-32 32 0 17.792 14.336 32 32 32h64v192z m32 288C264.576 960 64 759.424 64 512S264.576 64 512 64s448 200.576 448 448-200.576 448-448 448zM448 304c0 26.688 21.504 48 48 48 26.688 0 48-21.504 48-48 0-26.688-21.504-48-48-48-26.688 0-48 21.504-48 48z" fill="" p-id="30214"></path></svg>
