<?xml version="1.0" standalone="no"?><!DOCTYPE svg PUBLIC "-//W3C//DTD SVG 1.1//EN" "http://www.w3.org/Graphics/SVG/1.1/DTD/svg11.dtd"><svg t="1552642883358" class="icon" style="" viewBox="0 0 1024 1024" version="1.1" xmlns="http://www.w3.org/2000/svg" p-id="27894" xmlns:xlink="http://www.w3.org/1999/xlink" width="200" height="200"><defs><style type="text/css"></style></defs><path d="M480 672v-192h-64c-17.664 0-32-14.208-32-32 0-17.664 14.208-32 32-32h96a31.904 31.904 0 0 1 32 31.84V672h64.096c17.6 0 31.904 14.208 31.904 32 0 17.664-14.496 32-31.904 32h-192.192A31.872 31.872 0 0 1 384 704c0-17.664 14.496-32 31.904-32H480z m32 288C264.576 960 64 759.424 64 512S264.576 64 512 64s448 200.576 448 448-200.576 448-448 448z m0-64c212.064 0 384-171.936 384-384S724.064 128 512 128 128 299.936 128 512s171.936 384 384 384zM448 304c0-26.496 21.312-48 48-48 26.496 0 48 21.312 48 48 0 26.496-21.312 48-48 48-26.496 0-48-21.312-48-48z" fill="" p-id="27895"></path></svg>
