<?xml version="1.0" standalone="no"?><!DOCTYPE svg PUBLIC "-//W3C//DTD SVG 1.1//EN" "https://www.w3.org/Graphics/SVG/1.1/DTD/svg11.dtd"><svg t="1552644575824" class="icon" style="" viewBox="0 0 1024 1024" version="1.1" xmlns="https://www.w3.org/2000/svg" p-id="30104" xmlns:xlink="https://www.w3.org/1999/xlink" width="200" height="200"><defs><style type="text/css"></style></defs><path d="M702.048 243.936S423.552 140.608 343.808 113.6c0 0-21.952-10.912-55.808-17.568 0 0 37.536 67.872 30.304 113.216 0 0 2.336 22.944-21.536 43.648 0 0-111.072 80.064-146.624 151.136 0 0-55.584 61.248-54.112 205.056 0 0 28.032 236.48 263.2 304 0 0 411.072 103.936 546.656-236.736 0 0 118.784-282.08-203.84-432.384z m-80.64 340.768c-37.056 130.016-97.6 0-97.6 0l74.56-77.376-94.368-24.544c5.088-118.56 58.688-85.696 58.688-85.696 76.576 59.136 58.688 187.616 58.688 187.616z m231.616-51.328c-38.464 123.776-101.312 0-101.312 0l77.44-73.696-98.016-23.36c5.248-112.864 60.928-81.6 60.928-81.6 79.52 56.32 60.96 178.656 60.96 178.656z" fill="" p-id="30105"></path></svg>
