<?xml version="1.0" standalone="no"?><!DOCTYPE svg PUBLIC "-//W3C//DTD SVG 1.1//EN" "http://www.w3.org/Graphics/SVG/1.1/DTD/svg11.dtd"><svg t="1552645251756" class="icon" style="" viewBox="0 0 1024 1024" version="1.1" xmlns="http://www.w3.org/2000/svg" p-id="30540" xmlns:xlink="http://www.w3.org/1999/xlink" width="200" height="200"><defs><style type="text/css"></style></defs><path d="M512 960C264.576 960 64 759.424 64 512S264.576 64 512 64s448 200.576 448 448-200.576 448-448 448z m-32-287.68v63.36a32 32 0 1 0 64 0v-63.36a32 32 0 1 0-64 0z m0-384.48v256.32c0 17.28 14.336 31.84 32 31.84 17.792 0 32-14.272 32-31.84v-256.32c0-17.28-14.336-31.84-32-31.84-17.792 0-32 14.272-32 31.84z" fill="" p-id="30541"></path></svg>
