<?xml version="1.0" standalone="no"?><!DOCTYPE svg PUBLIC "-//W3C//DTD SVG 1.1//EN" "http://www.w3.org/Graphics/SVG/1.1/DTD/svg11.dtd"><svg t="1552641468161" class="icon" style="" viewBox="0 0 1024 1024" version="1.1" xmlns="http://www.w3.org/2000/svg" p-id="25428" xmlns:xlink="http://www.w3.org/1999/xlink" width="200" height="200"><defs><style type="text/css"></style></defs><path d="M1003.746 414.274V303.757c-3.07-80.841-86.98-84.934-86.98-84.934l-42.98 1.023s65.492-86.98-13.303-142.24C704.941-15.513 520.746 202.45 520.746 202.45l-2.047 736.78h332.575c91.074-1.023 92.097-78.794 92.097-78.794V522.745c-1.023-18.42-6.14-29.676-6.14-29.676 70.608-19.443 66.515-78.795 66.515-78.795z m-201.64-302.387c56.283 18.931 30.188 58.329 30.188 58.329s-1.535 16.884-35.815 49.118H583.63S698.24 91.933 802.107 111.887z m81.354 422.114V861.46s-3.07 25.583-34.281 24.56H549.862V497.161h307.503s28.141 4.093 26.095 36.84z m60.375-115.634s-7.163 25.583-29.676 23.537H549.35l-0.511-166.8h367.878s23.536 2.559 27.118 27.63v115.633z" fill="" p-id="25429"></path><path d="M104.328 493.068s-5.117 11.256-6.14 29.676v337.69s1.023 77.772 92.097 78.795H522.86l-2.047-736.78S336.618-15.515 181.076 77.605c-78.795 55.259-13.303 142.24-13.303 142.24l-42.98-1.023s-83.91 4.093-86.98 84.934v110.517s-4.094 59.352 66.515 78.795z m353.6-273.735H245.08c-34.28-32.234-35.815-49.118-35.815-49.118s-26.095-39.398 30.187-58.329c103.866-19.954 218.476 107.447 218.476 107.447zM184.194 497.161h307.503v388.856H192.38c-31.21 1.024-34.28-24.559-34.28-24.559V534c-2.047-32.746 26.094-36.839 26.094-36.839z m-86.47-194.428c3.582-25.071 27.118-27.63 27.118-27.63H492.72l-0.511 166.8H127.4c-22.513 2.046-29.676-23.537-29.676-23.537V302.733z" fill="" p-id="25430"></path></svg>
