<?xml version="1.0" standalone="no"?><!DOCTYPE svg PUBLIC "-//W3C//DTD SVG 1.1//EN" "https://www.w3.org/Graphics/SVG/1.1/DTD/svg11.dtd"><svg t="1555902697305" class="icon" style="" viewBox="0 0 1024 1024" version="1.1" xmlns="https://www.w3.org/2000/svg" p-id="6312" xmlns:xlink="https://www.w3.org/1999/xlink" width="200" height="200"><defs><style type="text/css"></style></defs><path d="M879.39584 441.270857c40.155429 0 72.704 32.621714 72.704 72.850286v364.251428c0 40.228571-32.548571 72.777143-72.704 72.777143H297.690697a72.777143 72.777143 0 0 1-72.704-72.850285v-364.251429c0-40.228571 32.548571-72.777143 72.704-72.777143h581.705143z m0-72.850286H297.690697A145.554286 145.554286 0 0 0 152.282697 514.194286v364.251428c0 80.457143 65.097143 145.627429 145.408 145.627429h581.705143A145.554286 145.554286 0 0 0 1024.80384 878.299429v-364.251429c0-80.457143-65.097143-145.554286-145.408-145.554286z m-302.518857-283.794285C317.292983 61.220571 70.874697 226.742857 1.242697 486.619429a36.352 36.352 0 0 0 70.363429 18.797714C135.386697 267.483429 370.175269 120.905143 608.694126 162.084571l-54.491429 54.564572a36.352 36.352 0 0 0 51.419429 51.346286l103.131428-103.131429a36.352 36.352 0 0 0 0-51.346286L605.914697 10.678857A36.425143 36.425143 0 0 0 554.495269 62.171429l22.381714 22.381714z" p-id="6313"></path></svg>
