<?xml version="1.0" standalone="no"?><!DOCTYPE svg PUBLIC "-//W3C//DTD SVG 1.1//EN" "https://www.w3.org/Graphics/SVG/1.1/DTD/svg11.dtd"><svg t="1555902691720" class="icon" style="" viewBox="0 0 1024 1024" version="1.1" xmlns="https://www.w3.org/2000/svg" p-id="6203" xmlns:xlink="https://www.w3.org/1999/xlink" width="200" height="200"><defs><style type="text/css"></style></defs><path d="M145.409463 441.270857a72.777143 72.777143 0 0 0-72.704 72.850286v364.251428c0 40.228571 32.548571 72.777143 72.704 72.777143h581.705143a72.777143 72.777143 0 0 0 72.704-72.850285v-364.251429a72.777143 72.777143 0 0 0-72.704-72.777143H145.409463z m0-72.850286h581.705143a145.554286 145.554286 0 0 1 145.408 145.700572v364.251428c0 80.457143-65.097143 145.627429-145.408 145.627429H145.409463A145.554286 145.554286 0 0 1 0.001463 878.299429v-364.251429c0-80.457143 65.097143-145.554286 145.408-145.554286z m302.518857-283.794285c259.584-23.405714 506.002286 142.043429 575.634286 401.993143a36.352 36.352 0 0 1-70.363429 18.797714C889.418606 267.483429 654.630034 120.905143 416.111177 162.084571l54.491429 54.564572a36.352 36.352 0 0 1-51.419429 51.346286l-103.131428-103.131429a36.352 36.352 0 0 1 0-51.346286L418.890606 10.678857A36.425143 36.425143 0 0 1 470.310034 62.171429l-22.381714 22.381714z" p-id="6204"></path></svg>
